<svg width="20" height="18" viewBox="0 0 20 18" fill="none" xmlns="http://www.w3.org/2000/svg">
<path d="M19.1288 6.71821H14.9557L11.1398 0.817258C10.9743 0.565388 10.6955 0.439453 10.4167 0.439453C10.1379 0.439453 9.8591 0.565388 9.69357 0.826253L5.87766 6.71821H1.70456C1.22539 6.71821 0.833344 7.123 0.833344 7.61774C0.833344 7.6987 0.842056 7.77966 0.868192 7.86062L3.08107 16.1993C3.28145 16.9549 3.95228 17.5126 4.7538 17.5126H16.0796C16.8811 17.5126 17.5519 16.9549 17.761 16.1993L19.9739 7.86062L20 7.61774C20 7.123 19.608 6.71821 19.1288 6.71821ZM10.4167 2.94016L12.8561 6.71821H7.97728L10.4167 2.94016ZM16.0796 15.7136L4.76251 15.7226L2.84584 8.51728H17.9962L16.0796 15.7136ZM10.4167 10.3163C9.45834 10.3163 8.67425 11.1259 8.67425 12.1154C8.67425 13.1049 9.45834 13.9145 10.4167 13.9145C11.375 13.9145 12.1591 13.1049 12.1591 12.1154C12.1591 11.1259 11.375 10.3163 10.4167 10.3163Z" fill="white"/>
</svg>
