<svg width="126" height="39" viewBox="0 0 126 39" fill="none" xmlns="http://www.w3.org/2000/svg">
<path d="M51.6636 26.2383C51.6636 27.8737 51.3563 29.1081 50.7417 29.9414C50.1323 30.7695 49.2026 31.1836 47.9526 31.1836C46.7235 31.1836 45.7964 30.7799 45.1714 29.9727C44.5516 29.1602 44.2339 27.9596 44.2183 26.3711V24.4023C44.2183 22.7669 44.5229 21.5404 45.1323 20.7227C45.7469 19.9049 46.6818 19.4961 47.937 19.4961C49.1818 19.4961 50.1089 19.8945 50.7183 20.6914C51.3328 21.4883 51.6479 22.681 51.6636 24.2695V26.2383ZM49.7651 24.1133C49.7651 23.0456 49.6193 22.2643 49.3276 21.7695C49.036 21.2695 48.5724 21.0195 47.937 21.0195C47.3172 21.0195 46.8615 21.2565 46.5698 21.7305C46.2782 22.1992 46.1245 22.9336 46.1089 23.9336V26.5117C46.1089 27.5742 46.2573 28.3659 46.5542 28.8867C46.8511 29.4076 47.3172 29.668 47.9526 29.668C48.562 29.668 49.0125 29.4284 49.3042 28.9492C49.5959 28.4648 49.7495 27.7096 49.7651 26.6836V24.1133ZM60.4283 31.0273H58.5298V22.5742H60.4283V31.0273ZM58.4126 20.3789C58.4126 20.0872 58.5038 19.8451 58.6861 19.6523C58.8736 19.4596 59.1392 19.3633 59.4829 19.3633C59.8267 19.3633 60.0923 19.4596 60.2798 19.6523C60.4673 19.8451 60.5611 20.0872 60.5611 20.3789C60.5611 20.6654 60.4673 20.9049 60.2798 21.0977C60.0923 21.2852 59.8267 21.3789 59.4829 21.3789C59.1392 21.3789 58.8736 21.2852 58.6861 21.0977C58.5038 20.9049 58.4126 20.6654 58.4126 20.3789ZM65.3614 20.5195V22.5742H66.8536V23.9805H65.3614V28.6992C65.3614 29.0221 65.4239 29.2565 65.5489 29.4023C65.6791 29.543 65.9083 29.6133 66.2364 29.6133C66.4551 29.6133 66.6765 29.5872 66.9004 29.5352V31.0039C66.4682 31.1237 66.0515 31.1836 65.6504 31.1836C64.1921 31.1836 63.4629 30.3789 63.4629 28.7695V23.9805H62.0723V22.5742H63.4629V20.5195H65.3614ZM72.5133 31.1836C71.3101 31.1836 70.3336 30.806 69.5836 30.0508C68.8388 29.2904 68.4664 28.2799 68.4664 27.0195V26.7852C68.4664 25.9414 68.6278 25.1888 68.9508 24.5273C69.2789 23.8607 69.7372 23.3424 70.3258 22.9727C70.9143 22.6029 71.5706 22.418 72.2945 22.418C73.4456 22.418 74.3336 22.7852 74.9586 23.5195C75.5888 24.2539 75.9039 25.293 75.9039 26.6367V27.4023H70.3804C70.4377 28.1003 70.6695 28.6523 71.0758 29.0586C71.4872 29.4648 72.0028 29.668 72.6226 29.668C73.4924 29.668 74.2008 29.3164 74.7476 28.6133L75.7711 29.5898C75.4325 30.0951 74.9794 30.4883 74.4117 30.7695C73.8492 31.0456 73.2164 31.1836 72.5133 31.1836ZM72.2867 23.9414C71.7659 23.9414 71.344 24.1237 71.0211 24.4883C70.7034 24.8529 70.5002 25.3607 70.4117 26.0117H74.0289V25.8711C73.9872 25.2357 73.8179 24.7565 73.5211 24.4336C73.2242 24.1055 72.8127 23.9414 72.2867 23.9414ZM79.6495 22.5742L79.7042 23.457C80.298 22.7643 81.1105 22.418 82.1417 22.418C83.2719 22.418 84.0453 22.8503 84.462 23.7148C85.0766 22.8503 85.9412 22.418 87.0558 22.418C87.9881 22.418 88.6808 22.6758 89.1339 23.1914C89.5922 23.707 89.8266 24.4674 89.837 25.4727V31.0273H87.9386V25.5273C87.9386 24.9909 87.8214 24.5977 87.587 24.3477C87.3526 24.0977 86.9646 23.9727 86.423 23.9727C85.9907 23.9727 85.6365 24.0898 85.3605 24.3242C85.0896 24.5534 84.8995 24.8555 84.7901 25.2305L84.798 31.0273H82.8995V25.4648C82.8735 24.4701 82.3657 23.9727 81.3761 23.9727C80.6157 23.9727 80.0766 24.2826 79.7589 24.9023V31.0273H77.8605V22.5742H79.6495ZM97.0045 28.7305C97.0045 28.3919 96.8639 28.1341 96.5826 27.957C96.3066 27.7799 95.8457 27.6237 95.1998 27.4883C94.554 27.3529 94.0149 27.181 93.5826 26.9727C92.6347 26.5143 92.1608 25.8503 92.1608 24.9805C92.1608 24.2513 92.4681 23.6419 93.0826 23.1523C93.6972 22.6628 94.4785 22.418 95.4264 22.418C96.4368 22.418 97.2519 22.668 97.8717 23.168C98.4967 23.668 98.8092 24.3164 98.8092 25.1133H96.9108C96.9108 24.7487 96.7753 24.4466 96.5045 24.207C96.2337 23.9622 95.8743 23.8398 95.4264 23.8398C95.0097 23.8398 94.6686 23.9362 94.403 24.1289C94.1425 24.3216 94.0123 24.5794 94.0123 24.9023C94.0123 25.194 94.1347 25.4206 94.3795 25.582C94.6243 25.7435 95.1191 25.9076 95.8639 26.0742C96.6087 26.2357 97.192 26.431 97.6139 26.6602C98.041 26.8841 98.3561 27.1549 98.5592 27.4727C98.7675 27.7904 98.8717 28.1758 98.8717 28.6289C98.8717 29.3893 98.5566 30.0065 97.9264 30.4805C97.2962 30.9492 96.4707 31.1836 95.4498 31.1836C94.7571 31.1836 94.1399 31.0586 93.5983 30.8086C93.0566 30.5586 92.6347 30.2148 92.3326 29.7773C92.0306 29.3398 91.8795 28.8685 91.8795 28.3633H93.7233C93.7493 28.8112 93.9186 29.1576 94.2311 29.4023C94.5436 29.6419 94.9576 29.7617 95.4733 29.7617C95.9733 29.7617 96.3535 29.668 96.6139 29.4805C96.8743 29.2878 97.0045 29.0378 97.0045 28.7305Z" fill="#BDBDBD"/>
<g clip-path="url(#clip0_162_6165)">
<path d="M34.3723 16.4355H26.938L20.14 5.92305C19.8451 5.47435 19.3485 5.25 18.8518 5.25C18.3552 5.25 17.8585 5.47435 17.5636 5.93908L10.7656 16.4355H3.33129C2.47766 16.4355 1.77924 17.1566 1.77924 18.038C1.77924 18.1822 1.79476 18.3265 1.84132 18.4707L5.78353 33.326C6.1405 34.6721 7.33558 35.6656 8.76347 35.6656H28.9402C30.368 35.6656 31.5631 34.6721 31.9356 33.326L35.8778 18.4707L35.9244 18.038C35.9244 17.1566 35.226 16.4355 34.3723 16.4355ZM18.8518 9.70497L23.1976 16.4355H14.5061L18.8518 9.70497ZM28.9402 32.4606L8.77899 32.4766L5.36448 19.6405H32.3547L28.9402 32.4606ZM18.8518 22.8455C17.1446 22.8455 15.7477 24.2878 15.7477 26.0506C15.7477 27.8133 17.1446 29.2556 18.8518 29.2556C20.5591 29.2556 21.9559 27.8133 21.9559 26.0506C21.9559 24.2878 20.5591 22.8455 18.8518 22.8455Z" fill="#BDBDBD"/>
</g>
<defs>
<clipPath id="clip0_162_6165">
<rect width="35.6297" height="34.7607" fill="white" transform="translate(0.294678 0.904297)"/>
</clipPath>
</defs>
</svg>
