<svg width="20" height="14" viewBox="0 0 20 14" fill="none" xmlns="http://www.w3.org/2000/svg">
<path fill-rule="evenodd" clip-rule="evenodd" d="M9.99994 12C6.48545 12 3.57041 9.98113 2.10227 7C3.57041 4.01886 6.48545 2 9.99994 2C13.5144 2 16.4296 4.01888 17.8977 7C16.4296 9.98112 13.5144 12 9.99994 12ZM9.99994 0C5.46832 0 1.77203 2.73532 0.0836471 6.59963C-0.0278824 6.85489 -0.0278824 7.14511 0.0836471 7.40037C1.77203 11.2647 5.46832 14 9.99994 14C14.5316 14 18.228 11.2647 19.9164 7.40037C20.0279 7.14511 20.0279 6.8549 19.9164 6.59963C18.228 2.73532 14.5316 0 9.99994 0ZM8 7C8 5.89543 8.89543 5 10 5C11.1046 5 12 5.89543 12 7C12 8.10457 11.1046 9 10 9C8.89543 9 8 8.10457 8 7ZM10 3C7.79086 3 6 4.79086 6 7C6 9.20914 7.79086 11 10 11C12.2091 11 14 9.20914 14 7C14 4.79086 12.2091 3 10 3Z" fill="#4F4F4F"/>
</svg>
