<svg width="110" height="36" viewBox="0 0 110 36" fill="none" xmlns="http://www.w3.org/2000/svg">
<path d="M15.4282 3.32V7.496H6.14019V13.04H14.6362V17.18H6.14019V26H0.668187V3.32H15.4282ZM36.068 17.252C36.068 18.668 35.828 19.94 35.348 21.068C34.892 22.196 34.256 23.156 33.44 23.948C32.624 24.74 31.664 25.352 30.56 25.784C29.456 26.192 28.268 26.396 26.996 26.396C25.724 26.396 24.536 26.204 23.432 25.82C22.352 25.412 21.416 24.836 20.624 24.092C19.832 23.348 19.208 22.436 18.752 21.356C18.296 20.252 18.068 19.004 18.068 17.612C18.068 16.148 18.296 14.84 18.752 13.688C19.232 12.536 19.88 11.564 20.696 10.772C21.512 9.98 22.472 9.38 23.576 8.972C24.68 8.54 25.868 8.324 27.14 8.324C28.412 8.324 29.588 8.516 30.668 8.9C31.772 9.284 32.72 9.86 33.512 10.628C34.304 11.372 34.928 12.296 35.384 13.4C35.84 14.504 36.068 15.788 36.068 17.252ZM30.596 17.432C30.596 16.496 30.5 15.704 30.308 15.056C30.116 14.384 29.852 13.844 29.516 13.436C29.18 13.004 28.796 12.692 28.364 12.5C27.932 12.308 27.488 12.212 27.032 12.212C26.576 12.212 26.132 12.296 25.7 12.464C25.292 12.632 24.92 12.92 24.584 13.328C24.272 13.736 24.02 14.276 23.828 14.948C23.636 15.596 23.54 16.424 23.54 17.432C23.54 19.184 23.9 20.468 24.62 21.284C25.34 22.1 26.168 22.508 27.104 22.508C27.56 22.508 27.992 22.424 28.4 22.256C28.832 22.064 29.204 21.776 29.516 21.392C29.852 20.984 30.116 20.456 30.308 19.808C30.5 19.16 30.596 18.368 30.596 17.432ZM57.5386 17.252C57.5386 18.668 57.2986 19.94 56.8186 21.068C56.3626 22.196 55.7266 23.156 54.9106 23.948C54.0946 24.74 53.1346 25.352 52.0306 25.784C50.9266 26.192 49.7386 26.396 48.4666 26.396C47.1946 26.396 46.0066 26.204 44.9026 25.82C43.8226 25.412 42.8866 24.836 42.0946 24.092C41.3026 23.348 40.6786 22.436 40.2226 21.356C39.7666 20.252 39.5386 19.004 39.5386 17.612C39.5386 16.148 39.7666 14.84 40.2226 13.688C40.7026 12.536 41.3506 11.564 42.1666 10.772C42.9826 9.98 43.9426 9.38 45.0466 8.972C46.1506 8.54 47.3386 8.324 48.6106 8.324C49.8826 8.324 51.0586 8.516 52.1386 8.9C53.2426 9.284 54.1906 9.86 54.9826 10.628C55.7746 11.372 56.3986 12.296 56.8546 13.4C57.3106 14.504 57.5386 15.788 57.5386 17.252ZM52.0666 17.432C52.0666 16.496 51.9706 15.704 51.7786 15.056C51.5866 14.384 51.3226 13.844 50.9866 13.436C50.6506 13.004 50.2666 12.692 49.8346 12.5C49.4026 12.308 48.9586 12.212 48.5026 12.212C48.0466 12.212 47.6026 12.296 47.1706 12.464C46.7626 12.632 46.3906 12.92 46.0546 13.328C45.7426 13.736 45.4906 14.276 45.2986 14.948C45.1066 15.596 45.0106 16.424 45.0106 17.432C45.0106 19.184 45.3706 20.468 46.0906 21.284C46.8106 22.1 47.6386 22.508 48.5746 22.508C49.0306 22.508 49.4626 22.424 49.8706 22.256C50.3026 22.064 50.6746 21.776 50.9866 21.392C51.3226 20.984 51.5866 20.456 51.7786 19.808C51.9706 19.16 52.0666 18.368 52.0666 17.432ZM72.9253 0.259999H78.2533V26H74.5813L74.0413 24.128H73.8613C73.5253 24.656 72.9373 25.172 72.0973 25.676C71.2813 26.156 70.2013 26.396 68.8573 26.396C67.7293 26.396 66.6853 26.192 65.7253 25.784C64.7653 25.352 63.9373 24.752 63.2413 23.984C62.5453 23.192 61.9933 22.244 61.5853 21.14C61.2013 20.012 61.0093 18.752 61.0093 17.36C61.0093 15.992 61.1893 14.756 61.5493 13.652C61.9093 12.524 62.4253 11.576 63.0973 10.808C63.7933 10.016 64.6453 9.404 65.6533 8.972C66.6613 8.54 67.8013 8.324 69.0733 8.324C69.8653 8.324 70.6093 8.444 71.3053 8.684C72.0253 8.9 72.5653 9.176 72.9253 9.512V0.259999ZM72.9253 13.4C72.7093 13.112 72.3733 12.836 71.9173 12.572C71.4613 12.308 70.9573 12.176 70.4053 12.176C69.8533 12.176 69.3373 12.272 68.8573 12.464C68.3773 12.632 67.9453 12.92 67.5613 13.328C67.2013 13.736 66.9133 14.264 66.6973 14.912C66.4813 15.536 66.3733 16.316 66.3733 17.252C66.3733 19.052 66.7213 20.384 67.4173 21.248C68.1373 22.088 69.0613 22.508 70.1893 22.508C70.8853 22.508 71.4613 22.328 71.9173 21.968C72.3973 21.608 72.7333 21.224 72.9253 20.816V13.4ZM81.7548 8.72H87.5868L90.4308 16.424L91.5828 20.636H91.7268L92.8068 16.352L95.2908 8.72H100.727L94.4988 26.324C94.1628 27.308 93.7668 28.268 93.3108 29.204C92.8548 30.14 92.2908 31.016 91.6188 31.832C90.9708 32.648 90.1788 33.392 89.2428 34.064C88.3068 34.736 87.1788 35.288 85.8588 35.72L83.6628 31.58C85.0788 31.076 86.2428 30.356 87.1548 29.42C88.0908 28.484 88.7148 27.404 89.0268 26.18L89.0988 25.892L81.7548 8.72Z" fill="black"/>
<path d="M103.644 23.228C103.644 22.316 103.944 21.572 104.544 20.996C105.168 20.396 105.9 20.096 106.74 20.096C107.58 20.096 108.3 20.396 108.9 20.996C109.5 21.572 109.8 22.316 109.8 23.228C109.8 24.212 109.5 24.992 108.9 25.568C108.3 26.12 107.58 26.396 106.74 26.396C105.9 26.396 105.168 26.12 104.544 25.568C103.944 24.992 103.644 24.212 103.644 23.228Z" fill="#D63626"/>
</svg>
